<svg version="1.1" id="Capa_1" xmlns="http://www.w3.org/2000/svg" xmlns:xlink="http://www.w3.org/1999/xlink" x="0px" y="0px" viewBox="0 0 1000 1000" style="enable-background:new 0 0 330 330;" xml:space="preserve" width="1000" height="1000" transform="scale(-1 1)"><g><path d="M500 0C224.3 0 0 224.304 0 500.004 0 775.7 224.3 1000 500 1000s500 -224.3 500 -499.996C1000 224.304 775.7 0 500 0zm0 909.09c-225.576 0 -409.09 -183.518 -409.09 -409.088 0 -225.572 183.514 -409.092 409.09 -409.092s409.09 183.522 409.09 409.094c0 225.568 -183.518 409.086 -409.09 409.086z"/><path d="M562.442 286.046c-17.748 -17.748 -46.53 -17.748 -64.282 0 -17.752 17.748 -17.752 46.53 0 64.282l104.228 104.228 -314.516 0.018c-25.104 0 -45.454 20.354 -45.452 45.458 0 25.104 20.354 45.452 45.458 45.452l314.496 -0.018 -104.218 104.222c-17.752 17.748 -17.752 46.53 0 64.282a45.31 45.31 0 0 0 32.14 13.316 45.304 45.304 0 0 0 32.14 -13.316l181.818 -181.822a45.44 45.44 0 0 0 0.006 -64.284l-181.818 -181.816z"/></g></svg>